<svg width="116" height="116" viewBox="0 0 116 116" fill="none" xmlns="http://www.w3.org/2000/svg">
<path fill-rule="evenodd" clip-rule="evenodd" d="M116 58C116 73.1015 110.229 86.8549 100.771 97.175L86.6105 83.0144C92.0029 76.5859 95.25 68.2972 95.25 59.25C95.25 38.8155 78.6845 22.25 58.25 22.25C37.8155 22.25 21.25 38.8155 21.25 59.25C21.25 79.6845 37.8155 96.25 58.25 96.25C67.2971 96.25 75.5858 93.0029 82.0143 87.6106L96.119 101.715C85.9256 110.611 72.5921 116 58 116C25.9675 116 0 90.0325 0 58C0 25.9675 25.9675 0 58 0C90.0325 0 116 25.9675 116 58ZM58.25 28.75C41.4053 28.75 27.75 42.4053 27.75 59.25C27.75 76.0947 41.4053 89.75 58.25 89.75C66.6695 89.75 74.2922 86.3385 79.8112 80.8223L79.8167 80.8168L79.8204 80.8131C85.3377 75.2939 88.75 67.6705 88.75 59.25C88.75 42.4053 75.0947 28.75 58.25 28.75ZM51.2375 49.7626C50.554 49.0791 49.446 49.0791 48.7626 49.7626C48.0792 50.446 48.0792 51.554 48.7626 52.2374L56.5251 60L48.7626 67.7626C48.0791 68.446 48.0791 69.554 48.7626 70.2374C49.446 70.9209 50.554 70.9209 51.2374 70.2374L59 62.4749L66.7626 70.2374C67.446 70.9209 68.554 70.9209 69.2374 70.2374C69.9209 69.554 69.9209 68.446 69.2374 67.7626L61.4749 60L69.2374 52.2374C69.9208 51.554 69.9208 50.446 69.2374 49.7626C68.554 49.0791 67.446 49.0791 66.7625 49.7626L59 57.5251L51.2375 49.7626Z" fill="#FF4201"/>
</svg>
