<svg width="123" height="123" viewBox="0 0 123 123" fill="none" xmlns="http://www.w3.org/2000/svg">
<rect width="123" height="123" rx="35" fill="#FF4201"/>
<path d="M90.6 64.7V90.6C90.6 92.5626 89.8203 94.4448 88.4326 95.8326C87.0448 97.2204 85.1626 98 83.2 98C81.2374 98 79.3552 97.2204 77.9674 95.8326C76.5796 94.4448 75.8 92.5626 75.8 90.6V72.1H68.4V35.1C68.4 32.1561 69.5695 29.3328 71.6511 27.2511C73.7328 25.1695 76.5561 24 79.5 24H90.6V64.7ZM38.8 61C36.8374 61 34.9552 60.2204 33.5674 58.8326C32.1796 57.4448 31.4 55.5626 31.4 53.6V27.7C31.4 26.7187 31.7898 25.7776 32.4837 25.0837C33.1776 24.3898 34.1187 24 35.1 24C36.0813 24 37.0224 24.3898 37.7163 25.0837C38.4102 25.7776 38.8 26.7187 38.8 27.7V42.5H42.5V27.7C42.5 26.7187 42.8898 25.7776 43.5837 25.0837C44.2776 24.3898 45.2187 24 46.2 24C47.1813 24 48.1224 24.3898 48.8163 25.0837C49.5102 25.7776 49.9 26.7187 49.9 27.7V42.5H53.6V27.7C53.6 26.7187 53.9898 25.7776 54.6837 25.0837C55.3776 24.3898 56.3187 24 57.3 24C58.2813 24 59.2224 24.3898 59.9163 25.0837C60.6102 25.7776 61 26.7187 61 27.7V53.6C61 55.5626 60.2203 57.4448 58.8326 58.8326C57.4448 60.2204 55.5626 61 53.6 61V90.6C53.6 92.5626 52.8204 94.4448 51.4326 95.8326C50.0448 97.2204 48.1626 98 46.2 98C44.2374 98 42.3552 97.2204 40.9674 95.8326C39.5796 94.4448 38.8 92.5626 38.8 90.6V61Z" fill="white"/>
</svg>
